<mxfile host="app.diagrams.net" agent="Mozilla/5.0 (Windows NT 10.0; Win64; x64) AppleWebKit/537.36 (KHTML, like Gecko) Chrome/132.0.0.0 Safari/537.36" version="26.0.14">
  <diagram name="Page-1" id="5nDQ3-5kwlGx4CkTxEof">
    <mxGraphModel dx="989" dy="532" grid="1" gridSize="10" guides="1" tooltips="1" connect="1" arrows="1" fold="1" page="1" pageScale="1" pageWidth="827" pageHeight="1169" math="0" shadow="0">
      <root>
        <mxCell id="0" />
        <mxCell id="1" parent="0" />
        <mxCell id="mpY6lQqM4wgo8zhRleDN-1" value="" style="shape=ext;double=1;rounded=1;whiteSpace=wrap;html=1;" vertex="1" parent="1">
          <mxGeometry x="114" y="100" width="346" height="390" as="geometry" />
        </mxCell>
        <mxCell id="mpY6lQqM4wgo8zhRleDN-2" value="&lt;h1 style=&quot;margin-top: 0px;&quot;&gt;Dataset&lt;/h1&gt;" style="text;html=1;whiteSpace=wrap;overflow=hidden;rounded=0;" vertex="1" parent="1">
          <mxGeometry x="254" y="50" width="96" height="40" as="geometry" />
        </mxCell>
        <mxCell id="mpY6lQqM4wgo8zhRleDN-3" value="" style="endArrow=none;dashed=1;html=1;rounded=0;exitX=0.004;exitY=0.154;exitDx=0;exitDy=0;exitPerimeter=0;entryX=1;entryY=0.153;entryDx=0;entryDy=0;entryPerimeter=0;" edge="1" parent="1" source="mpY6lQqM4wgo8zhRleDN-1" target="mpY6lQqM4wgo8zhRleDN-1">
          <mxGeometry width="50" height="50" relative="1" as="geometry">
            <mxPoint x="360" y="270" as="sourcePoint" />
            <mxPoint x="410" y="220" as="targetPoint" />
          </mxGeometry>
        </mxCell>
        <mxCell id="mpY6lQqM4wgo8zhRleDN-4" value="Explanatory Variables" style="text;html=1;align=center;verticalAlign=middle;whiteSpace=wrap;rounded=0;fillColor=none;" vertex="1" parent="1">
          <mxGeometry x="220" y="110" width="70" height="40" as="geometry" />
        </mxCell>
        <mxCell id="mpY6lQqM4wgo8zhRleDN-5" value="Target Variable (price/returns&lt;span style=&quot;background-color: transparent; color: light-dark(rgb(0, 0, 0), rgb(255, 255, 255));&quot;&gt;)&lt;/span&gt;" style="text;html=1;align=center;verticalAlign=middle;whiteSpace=wrap;rounded=0;fillColor=none;" vertex="1" parent="1">
          <mxGeometry x="379" y="110" width="70" height="40" as="geometry" />
        </mxCell>
        <mxCell id="mpY6lQqM4wgo8zhRleDN-7" value="" style="endArrow=none;dashed=1;html=1;dashPattern=1 3;strokeWidth=2;rounded=0;" edge="1" parent="1">
          <mxGeometry width="50" height="50" relative="1" as="geometry">
            <mxPoint x="320" y="490" as="sourcePoint" />
            <mxPoint x="320" y="160" as="targetPoint" />
          </mxGeometry>
        </mxCell>
        <mxCell id="mpY6lQqM4wgo8zhRleDN-9" value="" style="endArrow=none;dashed=1;html=1;dashPattern=1 3;strokeWidth=2;rounded=0;" edge="1" parent="1">
          <mxGeometry width="50" height="50" relative="1" as="geometry">
            <mxPoint x="190" y="490" as="sourcePoint" />
            <mxPoint x="190" y="160" as="targetPoint" />
          </mxGeometry>
        </mxCell>
        <mxCell id="mpY6lQqM4wgo8zhRleDN-10" value="Date" style="text;html=1;align=center;verticalAlign=middle;whiteSpace=wrap;rounded=0;" vertex="1" parent="1">
          <mxGeometry x="120" y="120" width="70" height="40" as="geometry" />
        </mxCell>
        <mxCell id="mpY6lQqM4wgo8zhRleDN-11" value="5.12.2022" style="text;html=1;align=center;verticalAlign=middle;whiteSpace=wrap;rounded=0;strokeColor=default;strokeWidth=1;" vertex="1" parent="1">
          <mxGeometry x="120" y="187.5" width="55" height="25" as="geometry" />
        </mxCell>
        <mxCell id="mpY6lQqM4wgo8zhRleDN-12" value="5.12.2023" style="text;html=1;align=center;verticalAlign=middle;whiteSpace=wrap;rounded=0;strokeColor=default;" vertex="1" parent="1">
          <mxGeometry x="127.5" y="432.5" width="55" height="30" as="geometry" />
        </mxCell>
        <mxCell id="mpY6lQqM4wgo8zhRleDN-14" value="" style="rounded=1;whiteSpace=wrap;html=1;fillColor=#fff2cc;strokeColor=#d6b656;" vertex="1" parent="1">
          <mxGeometry x="230" y="190" width="50" height="20" as="geometry" />
        </mxCell>
        <mxCell id="mpY6lQqM4wgo8zhRleDN-15" value="" style="rounded=1;whiteSpace=wrap;html=1;fillColor=#fff2cc;strokeColor=#d6b656;" vertex="1" parent="1">
          <mxGeometry x="230" y="220" width="50" height="20" as="geometry" />
        </mxCell>
        <mxCell id="mpY6lQqM4wgo8zhRleDN-16" value="" style="rounded=1;whiteSpace=wrap;html=1;fillColor=#fff2cc;strokeColor=#d6b656;" vertex="1" parent="1">
          <mxGeometry x="230" y="245" width="50" height="20" as="geometry" />
        </mxCell>
        <mxCell id="mpY6lQqM4wgo8zhRleDN-17" value="" style="rounded=1;whiteSpace=wrap;html=1;fillColor=#fff2cc;strokeColor=#d6b656;" vertex="1" parent="1">
          <mxGeometry x="230" y="272.5" width="50" height="20" as="geometry" />
        </mxCell>
        <mxCell id="mpY6lQqM4wgo8zhRleDN-18" value="" style="rounded=1;whiteSpace=wrap;html=1;fillColor=#fff2cc;strokeColor=#d6b656;" vertex="1" parent="1">
          <mxGeometry x="230" y="297.5" width="50" height="20" as="geometry" />
        </mxCell>
        <mxCell id="mpY6lQqM4wgo8zhRleDN-19" value="" style="rounded=1;whiteSpace=wrap;html=1;fillColor=#fff2cc;strokeColor=#d6b656;" vertex="1" parent="1">
          <mxGeometry x="230" y="330" width="50" height="20" as="geometry" />
        </mxCell>
        <mxCell id="mpY6lQqM4wgo8zhRleDN-20" value="" style="rounded=1;whiteSpace=wrap;html=1;fillColor=#fff2cc;strokeColor=#d6b656;" vertex="1" parent="1">
          <mxGeometry x="230" y="355" width="50" height="20" as="geometry" />
        </mxCell>
        <mxCell id="mpY6lQqM4wgo8zhRleDN-21" value="" style="rounded=1;whiteSpace=wrap;html=1;fillColor=#fff2cc;strokeColor=#d6b656;" vertex="1" parent="1">
          <mxGeometry x="230" y="380" width="50" height="20" as="geometry" />
        </mxCell>
        <mxCell id="mpY6lQqM4wgo8zhRleDN-22" value="" style="rounded=1;whiteSpace=wrap;html=1;fillColor=#fff2cc;strokeColor=#d6b656;" vertex="1" parent="1">
          <mxGeometry x="230" y="405" width="50" height="20" as="geometry" />
        </mxCell>
        <mxCell id="mpY6lQqM4wgo8zhRleDN-23" value="" style="rounded=1;whiteSpace=wrap;html=1;fillColor=#fff2cc;strokeColor=#d6b656;" vertex="1" parent="1">
          <mxGeometry x="230" y="432.5" width="50" height="20" as="geometry" />
        </mxCell>
        <mxCell id="mpY6lQqM4wgo8zhRleDN-24" value="" style="rounded=1;whiteSpace=wrap;html=1;fillColor=#fff2cc;strokeColor=#d6b656;" vertex="1" parent="1">
          <mxGeometry x="230" y="457.5" width="50" height="20" as="geometry" />
        </mxCell>
        <mxCell id="mpY6lQqM4wgo8zhRleDN-43" value="" style="shape=flexArrow;endArrow=classic;html=1;rounded=0;endWidth=5.517241379310345;endSize=5.2620689655172415;" edge="1" parent="1">
          <mxGeometry width="50" height="50" relative="1" as="geometry">
            <mxPoint x="490" y="430" as="sourcePoint" />
            <mxPoint x="490" y="190" as="targetPoint" />
          </mxGeometry>
        </mxCell>
        <mxCell id="mpY6lQqM4wgo8zhRleDN-44" value="Shift target&amp;nbsp;&lt;div&gt;variables back by horizon h&amp;nbsp;&lt;/div&gt;" style="edgeLabel;html=1;align=center;verticalAlign=middle;resizable=0;points=[];" vertex="1" connectable="0" parent="mpY6lQqM4wgo8zhRleDN-43">
          <mxGeometry x="-0.5916" y="-3" relative="1" as="geometry">
            <mxPoint y="-76" as="offset" />
          </mxGeometry>
        </mxCell>
        <mxCell id="mpY6lQqM4wgo8zhRleDN-94" value="" style="rounded=1;whiteSpace=wrap;html=1;fillColor=#f8cecc;strokeColor=#b85450;" vertex="1" parent="1">
          <mxGeometry x="370" y="190" width="50" height="20" as="geometry" />
        </mxCell>
        <mxCell id="mpY6lQqM4wgo8zhRleDN-96" value="" style="rounded=1;whiteSpace=wrap;html=1;fillColor=#f8cecc;strokeColor=#b85450;" vertex="1" parent="1">
          <mxGeometry x="370" y="245" width="50" height="20" as="geometry" />
        </mxCell>
        <mxCell id="mpY6lQqM4wgo8zhRleDN-97" value="" style="rounded=1;whiteSpace=wrap;html=1;fillColor=#f8cecc;strokeColor=#b85450;" vertex="1" parent="1">
          <mxGeometry x="370" y="272.5" width="50" height="20" as="geometry" />
        </mxCell>
        <mxCell id="mpY6lQqM4wgo8zhRleDN-98" value="" style="rounded=1;whiteSpace=wrap;html=1;fillColor=#f8cecc;strokeColor=#b85450;" vertex="1" parent="1">
          <mxGeometry x="370" y="297.5" width="50" height="20" as="geometry" />
        </mxCell>
        <mxCell id="mpY6lQqM4wgo8zhRleDN-99" value="" style="rounded=1;whiteSpace=wrap;html=1;fillColor=#f8cecc;strokeColor=#b85450;" vertex="1" parent="1">
          <mxGeometry x="370" y="330" width="50" height="20" as="geometry" />
        </mxCell>
        <mxCell id="mpY6lQqM4wgo8zhRleDN-100" value="" style="rounded=1;whiteSpace=wrap;html=1;fillColor=#f8cecc;strokeColor=#b85450;" vertex="1" parent="1">
          <mxGeometry x="370" y="355" width="50" height="20" as="geometry" />
        </mxCell>
        <mxCell id="mpY6lQqM4wgo8zhRleDN-101" value="" style="rounded=1;whiteSpace=wrap;html=1;fillColor=#f8cecc;strokeColor=#b85450;" vertex="1" parent="1">
          <mxGeometry x="370" y="380" width="50" height="20" as="geometry" />
        </mxCell>
        <mxCell id="mpY6lQqM4wgo8zhRleDN-102" value="" style="rounded=1;whiteSpace=wrap;html=1;fillColor=#f8cecc;strokeColor=#b85450;" vertex="1" parent="1">
          <mxGeometry x="370" y="405" width="50" height="20" as="geometry" />
        </mxCell>
        <mxCell id="mpY6lQqM4wgo8zhRleDN-103" value="" style="rounded=1;whiteSpace=wrap;html=1;fillColor=#f8cecc;strokeColor=#b85450;" vertex="1" parent="1">
          <mxGeometry x="370" y="432.5" width="50" height="20" as="geometry" />
        </mxCell>
        <mxCell id="mpY6lQqM4wgo8zhRleDN-104" value="" style="rounded=1;whiteSpace=wrap;html=1;fillColor=#f8cecc;strokeColor=#b85450;" vertex="1" parent="1">
          <mxGeometry x="370" y="457.5" width="50" height="20" as="geometry" />
        </mxCell>
        <mxCell id="mpY6lQqM4wgo8zhRleDN-105" value="" style="shape=ext;double=1;rounded=1;whiteSpace=wrap;html=1;" vertex="1" parent="1">
          <mxGeometry x="114" y="550" width="346" height="390" as="geometry" />
        </mxCell>
        <mxCell id="mpY6lQqM4wgo8zhRleDN-106" value="&lt;h1 style=&quot;margin-top: 0px;&quot;&gt;Dataset&lt;/h1&gt;" style="text;html=1;whiteSpace=wrap;overflow=hidden;rounded=0;" vertex="1" parent="1">
          <mxGeometry x="254" y="500" width="96" height="40" as="geometry" />
        </mxCell>
        <mxCell id="mpY6lQqM4wgo8zhRleDN-107" value="" style="endArrow=none;dashed=1;html=1;rounded=0;exitX=0.004;exitY=0.154;exitDx=0;exitDy=0;exitPerimeter=0;entryX=1;entryY=0.153;entryDx=0;entryDy=0;entryPerimeter=0;" edge="1" source="mpY6lQqM4wgo8zhRleDN-105" target="mpY6lQqM4wgo8zhRleDN-105" parent="1">
          <mxGeometry width="50" height="50" relative="1" as="geometry">
            <mxPoint x="360" y="720" as="sourcePoint" />
            <mxPoint x="410" y="670" as="targetPoint" />
          </mxGeometry>
        </mxCell>
        <mxCell id="mpY6lQqM4wgo8zhRleDN-108" value="Explanatory Variables" style="text;html=1;align=center;verticalAlign=middle;whiteSpace=wrap;rounded=0;fillColor=none;" vertex="1" parent="1">
          <mxGeometry x="220" y="560" width="70" height="40" as="geometry" />
        </mxCell>
        <mxCell id="mpY6lQqM4wgo8zhRleDN-109" value="Target Variable (price/returns&lt;span style=&quot;background-color: transparent; color: light-dark(rgb(0, 0, 0), rgb(255, 255, 255));&quot;&gt;)&lt;/span&gt;" style="text;html=1;align=center;verticalAlign=middle;whiteSpace=wrap;rounded=0;fillColor=none;" vertex="1" parent="1">
          <mxGeometry x="379" y="560" width="70" height="40" as="geometry" />
        </mxCell>
        <mxCell id="mpY6lQqM4wgo8zhRleDN-110" value="" style="endArrow=none;dashed=1;html=1;dashPattern=1 3;strokeWidth=2;rounded=0;" edge="1" parent="1">
          <mxGeometry width="50" height="50" relative="1" as="geometry">
            <mxPoint x="320" y="940" as="sourcePoint" />
            <mxPoint x="320" y="610" as="targetPoint" />
          </mxGeometry>
        </mxCell>
        <mxCell id="mpY6lQqM4wgo8zhRleDN-111" value="" style="endArrow=none;dashed=1;html=1;dashPattern=1 3;strokeWidth=2;rounded=0;" edge="1" parent="1">
          <mxGeometry width="50" height="50" relative="1" as="geometry">
            <mxPoint x="190" y="940" as="sourcePoint" />
            <mxPoint x="190" y="610" as="targetPoint" />
          </mxGeometry>
        </mxCell>
        <mxCell id="mpY6lQqM4wgo8zhRleDN-112" value="Date" style="text;html=1;align=center;verticalAlign=middle;whiteSpace=wrap;rounded=0;" vertex="1" parent="1">
          <mxGeometry x="120" y="570" width="70" height="40" as="geometry" />
        </mxCell>
        <mxCell id="mpY6lQqM4wgo8zhRleDN-113" value="5.12.2022" style="text;html=1;align=center;verticalAlign=middle;whiteSpace=wrap;rounded=0;strokeColor=default;strokeWidth=1;" vertex="1" parent="1">
          <mxGeometry x="120" y="637.5" width="55" height="25" as="geometry" />
        </mxCell>
        <mxCell id="mpY6lQqM4wgo8zhRleDN-114" value="5.12.2023" style="text;html=1;align=center;verticalAlign=middle;whiteSpace=wrap;rounded=0;strokeColor=default;" vertex="1" parent="1">
          <mxGeometry x="127.5" y="882.5" width="55" height="30" as="geometry" />
        </mxCell>
        <mxCell id="mpY6lQqM4wgo8zhRleDN-115" value="5.12.2022" style="rounded=1;whiteSpace=wrap;html=1;fillColor=#fff2cc;strokeColor=#d6b656;fontSize=9;" vertex="1" parent="1">
          <mxGeometry x="230" y="640" width="50" height="20" as="geometry" />
        </mxCell>
        <mxCell id="mpY6lQqM4wgo8zhRleDN-116" value="" style="rounded=1;whiteSpace=wrap;html=1;fillColor=#fff2cc;strokeColor=#d6b656;" vertex="1" parent="1">
          <mxGeometry x="230" y="670" width="50" height="20" as="geometry" />
        </mxCell>
        <mxCell id="mpY6lQqM4wgo8zhRleDN-117" value="" style="rounded=1;whiteSpace=wrap;html=1;fillColor=#fff2cc;strokeColor=#d6b656;" vertex="1" parent="1">
          <mxGeometry x="230" y="695" width="50" height="20" as="geometry" />
        </mxCell>
        <mxCell id="mpY6lQqM4wgo8zhRleDN-118" value="" style="rounded=1;whiteSpace=wrap;html=1;fillColor=#fff2cc;strokeColor=#d6b656;" vertex="1" parent="1">
          <mxGeometry x="230" y="722.5" width="50" height="20" as="geometry" />
        </mxCell>
        <mxCell id="mpY6lQqM4wgo8zhRleDN-119" value="" style="rounded=1;whiteSpace=wrap;html=1;fillColor=#fff2cc;strokeColor=#d6b656;" vertex="1" parent="1">
          <mxGeometry x="230" y="747.5" width="50" height="20" as="geometry" />
        </mxCell>
        <mxCell id="mpY6lQqM4wgo8zhRleDN-120" value="" style="rounded=1;whiteSpace=wrap;html=1;fillColor=#fff2cc;strokeColor=#d6b656;" vertex="1" parent="1">
          <mxGeometry x="230" y="780" width="50" height="20" as="geometry" />
        </mxCell>
        <mxCell id="mpY6lQqM4wgo8zhRleDN-121" value="" style="rounded=1;whiteSpace=wrap;html=1;fillColor=#fff2cc;strokeColor=#d6b656;" vertex="1" parent="1">
          <mxGeometry x="230" y="805" width="50" height="20" as="geometry" />
        </mxCell>
        <mxCell id="mpY6lQqM4wgo8zhRleDN-122" value="" style="rounded=1;whiteSpace=wrap;html=1;fillColor=#fff2cc;strokeColor=#d6b656;" vertex="1" parent="1">
          <mxGeometry x="230" y="830" width="50" height="20" as="geometry" />
        </mxCell>
        <mxCell id="mpY6lQqM4wgo8zhRleDN-123" value="" style="rounded=1;whiteSpace=wrap;html=1;fillColor=#fff2cc;strokeColor=#d6b656;" vertex="1" parent="1">
          <mxGeometry x="230" y="855" width="50" height="20" as="geometry" />
        </mxCell>
        <mxCell id="mpY6lQqM4wgo8zhRleDN-124" value="" style="rounded=1;whiteSpace=wrap;html=1;fillColor=#fff2cc;strokeColor=#d6b656;" vertex="1" parent="1">
          <mxGeometry x="230" y="882.5" width="50" height="20" as="geometry" />
        </mxCell>
        <mxCell id="mpY6lQqM4wgo8zhRleDN-125" value="" style="rounded=1;whiteSpace=wrap;html=1;fillColor=#fff2cc;strokeColor=#d6b656;" vertex="1" parent="1">
          <mxGeometry x="230" y="907.5" width="50" height="20" as="geometry" />
        </mxCell>
        <mxCell id="mpY6lQqM4wgo8zhRleDN-128" value="&lt;span&gt;5.12.2022&amp;nbsp;&lt;/span&gt;&lt;div&gt;&lt;span&gt;+ h&lt;/span&gt;&lt;/div&gt;" style="rounded=1;whiteSpace=wrap;html=1;fillColor=#dae8fc;strokeColor=#6c8ebf;fontSize=8;" vertex="1" parent="1">
          <mxGeometry x="370" y="640" width="50" height="20" as="geometry" />
        </mxCell>
        <mxCell id="mpY6lQqM4wgo8zhRleDN-129" value="" style="rounded=1;whiteSpace=wrap;html=1;fillColor=#f8cecc;strokeColor=#b85450;" vertex="1" parent="1">
          <mxGeometry x="370" y="670" width="50" height="20" as="geometry" />
        </mxCell>
        <mxCell id="mpY6lQqM4wgo8zhRleDN-130" value="" style="rounded=1;whiteSpace=wrap;html=1;fillColor=#f8cecc;strokeColor=#b85450;" vertex="1" parent="1">
          <mxGeometry x="370" y="695" width="50" height="20" as="geometry" />
        </mxCell>
        <mxCell id="mpY6lQqM4wgo8zhRleDN-131" value="" style="rounded=1;whiteSpace=wrap;html=1;fillColor=#f8cecc;strokeColor=#b85450;" vertex="1" parent="1">
          <mxGeometry x="370" y="722.5" width="50" height="20" as="geometry" />
        </mxCell>
        <mxCell id="mpY6lQqM4wgo8zhRleDN-132" value="" style="rounded=1;whiteSpace=wrap;html=1;fillColor=#f8cecc;strokeColor=#b85450;" vertex="1" parent="1">
          <mxGeometry x="370" y="747.5" width="50" height="20" as="geometry" />
        </mxCell>
        <mxCell id="mpY6lQqM4wgo8zhRleDN-133" value="" style="rounded=1;whiteSpace=wrap;html=1;fillColor=#f8cecc;strokeColor=#b85450;" vertex="1" parent="1">
          <mxGeometry x="370" y="780" width="50" height="20" as="geometry" />
        </mxCell>
        <mxCell id="mpY6lQqM4wgo8zhRleDN-134" value="" style="rounded=1;whiteSpace=wrap;html=1;fillColor=#f8cecc;strokeColor=#b85450;" vertex="1" parent="1">
          <mxGeometry x="370" y="805" width="50" height="20" as="geometry" />
        </mxCell>
        <mxCell id="mpY6lQqM4wgo8zhRleDN-135" value="" style="rounded=1;whiteSpace=wrap;html=1;fillColor=#f8cecc;strokeColor=#b85450;" vertex="1" parent="1">
          <mxGeometry x="370" y="830" width="50" height="20" as="geometry" />
        </mxCell>
        <mxCell id="mpY6lQqM4wgo8zhRleDN-136" value="" style="rounded=1;whiteSpace=wrap;html=1;fillColor=#f8cecc;strokeColor=#b85450;" vertex="1" parent="1">
          <mxGeometry x="370" y="855" width="50" height="20" as="geometry" />
        </mxCell>
        <mxCell id="mpY6lQqM4wgo8zhRleDN-137" value="" style="rounded=1;whiteSpace=wrap;html=1;fillColor=#f8cecc;strokeColor=#b85450;" vertex="1" parent="1">
          <mxGeometry x="370" y="882.5" width="50" height="20" as="geometry" />
        </mxCell>
        <mxCell id="mpY6lQqM4wgo8zhRleDN-138" value="" style="rounded=1;whiteSpace=wrap;html=1;fillColor=#f8cecc;strokeColor=#b85450;" vertex="1" parent="1">
          <mxGeometry x="370" y="617.5" width="50" height="20" as="geometry" />
        </mxCell>
        <mxCell id="mpY6lQqM4wgo8zhRleDN-140" value="&lt;span&gt;5.12.2022&amp;nbsp;&lt;/span&gt;&lt;div&gt;&lt;span&gt;+ h&lt;/span&gt;&lt;/div&gt;" style="rounded=1;whiteSpace=wrap;html=1;fillColor=#dae8fc;strokeColor=#6c8ebf;fontSize=8;" vertex="1" parent="1">
          <mxGeometry x="370" y="220" width="50" height="20" as="geometry" />
        </mxCell>
        <mxCell id="mpY6lQqM4wgo8zhRleDN-143" value="" style="endArrow=none;dashed=1;html=1;rounded=0;entryX=1.002;entryY=0.229;entryDx=0;entryDy=0;entryPerimeter=0;" edge="1" parent="1" target="mpY6lQqM4wgo8zhRleDN-105">
          <mxGeometry width="50" height="50" relative="1" as="geometry">
            <mxPoint x="190" y="640" as="sourcePoint" />
            <mxPoint x="360" y="730" as="targetPoint" />
          </mxGeometry>
        </mxCell>
        <mxCell id="mpY6lQqM4wgo8zhRleDN-144" value="" style="endArrow=none;dashed=1;html=1;rounded=0;entryX=0.987;entryY=0.904;entryDx=0;entryDy=0;entryPerimeter=0;" edge="1" parent="1" target="mpY6lQqM4wgo8zhRleDN-105">
          <mxGeometry width="50" height="50" relative="1" as="geometry">
            <mxPoint x="190" y="903.5" as="sourcePoint" />
            <mxPoint x="461" y="902.5" as="targetPoint" />
          </mxGeometry>
        </mxCell>
        <mxCell id="mpY6lQqM4wgo8zhRleDN-145" value="" style="endArrow=classic;html=1;rounded=0;entryX=1;entryY=0.225;entryDx=0;entryDy=0;entryPerimeter=0;" edge="1" parent="1" target="mpY6lQqM4wgo8zhRleDN-105">
          <mxGeometry width="50" height="50" relative="1" as="geometry">
            <mxPoint x="520" y="720" as="sourcePoint" />
            <mxPoint x="330" y="650" as="targetPoint" />
          </mxGeometry>
        </mxCell>
        <mxCell id="mpY6lQqM4wgo8zhRleDN-146" value="" style="endArrow=classic;html=1;rounded=0;entryX=0.991;entryY=0.903;entryDx=0;entryDy=0;entryPerimeter=0;" edge="1" parent="1" target="mpY6lQqM4wgo8zhRleDN-105">
          <mxGeometry width="50" height="50" relative="1" as="geometry">
            <mxPoint x="520" y="720" as="sourcePoint" />
            <mxPoint x="500" y="774" as="targetPoint" />
          </mxGeometry>
        </mxCell>
        <mxCell id="mpY6lQqM4wgo8zhRleDN-147" value="Drop values without corresponding counterpart" style="text;html=1;align=center;verticalAlign=middle;whiteSpace=wrap;rounded=0;" vertex="1" parent="1">
          <mxGeometry x="530" y="700" width="60" height="30" as="geometry" />
        </mxCell>
      </root>
    </mxGraphModel>
  </diagram>
</mxfile>
